<svg xmlns="http://www.w3.org/2000/svg" viewBox="0 0 512 512"><title>cybersecurity-security-data-protection</title><g id="Filled_outline" data-name="Filled outline"><path d="M120,72H440a32,32,0,0,1,32,32V352a24,24,0,0,1-24,24H112a24,24,0,0,1-24-24V104A32,32,0,0,1,120,72Z" style="fill:#4db7e5"/><path d="M440,72h-8V376h16V73.008A32.066,32.066,0,0,0,440,72Z" style="fill:#48add9"/><path d="M400,24H160a32,32,0,0,0-32,32V392H432V56A32,32,0,0,0,400,24Z" style="fill:#348fd9"/><polygon points="432 100 140 392 432 392 432 100" style="fill:#3086cd"/><path d="M384,224q0,4.035-.3,8a103.866,103.866,0,0,1-89.22,94.99c-2.14.31-4.3.54-6.48.71q-3.96.3-8,.3t-8-.3c-2.18-.17-4.34-.4-6.48-.71a102.673,102.673,0,0,1-24.22-6.43,103.993,103.993,0,0,1-65-88.56q-.3-3.96-.3-8t.3-8a103.683,103.683,0,0,1,21.72-56,104.3,104.3,0,0,1,43.3-32.57,102.991,102.991,0,0,1,23.07-6.26q3.765-.57,7.61-.87,3.96-.3,8-.3t8,.3c2.18.17,4.34.4,6.48.71a102.625,102.625,0,0,1,24.2,6.42A104.352,104.352,0,0,1,372.28,176a103.167,103.167,0,0,1,11.42,40Q384,219.96,384,224Z" style="fill:#4db7e5"/><path d="M383.7,232q.3-3.96.3-8t-.3-8H343.85a203.479,203.479,0,0,0-5.48-40h33.91a103.39,103.39,0,0,0-10.3-16H333.74a164.522,164.522,0,0,0-15.06-32.57,102.625,102.625,0,0,0-24.2-6.42l5.58,7.2A140.136,140.136,0,0,1,316.75,160H288V120.3q-3.96-.3-8-.3t-8,.3V160H243.25a139.619,139.619,0,0,1,16.78-31.91c.1-.13.18-.27.27-.4l4.09-6.52a102.991,102.991,0,0,0-23.07,6.26A164,164,0,0,0,226.26,160H198.02a103.39,103.39,0,0,0-10.3,16h33.91a203.273,203.273,0,0,0-5.48,40H176.3q-.3,3.96-.3,8t.3,8h39.86a200.472,200.472,0,0,0,7.64,48H192.34a104.41,104.41,0,0,0,12.62,16h24.26a155.639,155.639,0,0,0,12.08,24.56,102.673,102.673,0,0,0,24.22,6.43l-5.58-7.21A132.481,132.481,0,0,1,246.53,296H272v31.7q3.96.3,8,.3t8-.3V296h25.47a131.953,131.953,0,0,1-13.41,23.78l-5.58,7.21a102.673,102.673,0,0,0,24.22-6.43A154.767,154.767,0,0,0,330.78,296h24.26a104.41,104.41,0,0,0,12.62-16H336.2a200.792,200.792,0,0,0,7.64-48ZM272,280H240.53a182.9,182.9,0,0,1-8.36-48H272Zm0-64H232.16a185.906,185.906,0,0,1,5.97-40H272Zm47.47,64H288V232h39.83A183.261,183.261,0,0,1,319.47,280ZM288,216V176h33.87a186.186,186.186,0,0,1,5.97,40Z" style="fill:#60d1e0"/><path d="M332.686,368h0a27.313,27.313,0,0,1-19.313,8H248a27.317,27.317,0,0,1-19.314-8h0a27.313,27.313,0,0,0-19.313-8H72v24a24,24,0,0,0,24,24H464a24,24,0,0,0,24-24V360H352A27.317,27.317,0,0,0,332.686,368Z" style="fill:#e0e0de"/><path d="M456,360v24a24,24,0,0,1-24,24h32a24,24,0,0,0,24-24V360Z" style="fill:#d6d6d4"/><path d="M248,370V470a17.778,17.778,0,0,1-2.46,9.07A17.967,17.967,0,0,1,230,488H42a17.967,17.967,0,0,1-15.54-8.93A17.778,17.778,0,0,1,24,470V370a17.778,17.778,0,0,1,2.46-9.07A17.967,17.967,0,0,1,42,352H230a17.967,17.967,0,0,1,15.54,8.93A17.778,17.778,0,0,1,248,370Z" style="fill:#ffb531"/><path d="M245.54,360.93c-24.77,13.79-64.61,22.74-109.54,22.74s-84.77-8.95-109.54-22.74A17.967,17.967,0,0,1,42,352H230A17.967,17.967,0,0,1,245.54,360.93Z" style="fill:#ffcb73"/><path d="M245.54,479.07A17.967,17.967,0,0,1,230,488H42a17.967,17.967,0,0,1-15.54-8.93C51.23,465.28,91.07,456.33,136,456.33S220.77,465.28,245.54,479.07Z" style="fill:#ffa912"/><path d="M136,216a88,88,0,0,0-88,88v48H80V304a56,56,0,0,1,112,0v48h32V304A88,88,0,0,0,136,216Z" style="fill:#e0e0de"/><path d="M160,416a24,24,0,1,0-32,22.525V456h16V438.526A23.96,23.96,0,0,0,160,416Z" style="fill:#95573a"/><path d="M488,352h-8V104a40.045,40.045,0,0,0-40-40V56a40.045,40.045,0,0,0-40-40H160a40.045,40.045,0,0,0-40,40v8a40.045,40.045,0,0,0-40,40v96H96V104a24.027,24.027,0,0,1,24-24V192h16V56a24.027,24.027,0,0,1,24-24H400a24.027,24.027,0,0,1,24,24V328h16V80a24.027,24.027,0,0,1,24,24V352H352a35.038,35.038,0,0,0-24.937,10.343A19.24,19.24,0,0,1,313.36,368H272v16h41.36a35.137,35.137,0,0,0,25.017-10.343A19.147,19.147,0,0,1,352,368H480v16a16.019,16.019,0,0,1-16,16H272v16H464a32.036,32.036,0,0,0,32-32V360A8,8,0,0,0,488,352Z"/><rect x="120" y="272" width="16" height="56"/><rect x="159.995" y="48" width="16" height="16"/><rect x="191.995" y="48" width="16" height="16"/><rect x="223.995" y="48" width="16" height="16"/><rect x="160" y="80" width="240" height="16"/><path d="M255.517,316.813c-1.692-.436-3.4-.929-5.072-1.467l-4.892,15.234c1.969.632,3.978,1.213,5.924,1.715a111.9,111.9,0,0,0,116.731-39.35,111.981,111.981,0,0,0-59.685-177.24,111.949,111.949,0,0,0-122.85,47.965A110.594,110.594,0,0,0,171,198.158l15.57,3.683A94.551,94.551,0,0,1,196.887,176h24.745A204.381,204.381,0,0,0,216,224c0,5.54.223,11.137.663,16.638l15.949-1.276c-.195-2.438-.341-4.9-.443-7.362H272v48H248v16h24v23.642A95.8,95.8,0,0,1,255.517,316.813ZM343.42,296a96.379,96.379,0,0,1-18.209,12.647c2.011-4.093,3.881-8.3,5.566-12.647Zm14.513-16H336.19a201.2,201.2,0,0,0,7.649-48h31.837A94.311,94.311,0,0,1,357.933,280ZM258.41,130.472A95.56,95.56,0,0,1,272,128.358V160H243.273A141.467,141.467,0,0,1,258.41,130.472ZM288,128.359a95.738,95.738,0,0,1,13.59,2.114A141.448,141.448,0,0,1,316.728,160H288ZM321.861,176a186.068,186.068,0,0,1,5.97,40H288V176Zm53.8,40h-31.81a203,203,0,0,0-5.479-40h24.738A95.089,95.089,0,0,1,375.656,216Zm-24.144-56H333.729a171.889,171.889,0,0,0-8.589-20.763A95.11,95.11,0,0,1,351.512,160ZM234.86,139.238A171.887,171.887,0,0,0,226.272,160H208.485A95.1,95.1,0,0,1,234.86,139.238ZM232.169,216a186,186,0,0,1,5.969-40H272v40ZM288,232h39.833a183.246,183.246,0,0,1-8.373,48H288Zm25.452,64a133.414,133.414,0,0,1-11.842,21.523,95.42,95.42,0,0,1-13.61,2.12V296Z"/><path d="M232,344.159V304a96,96,0,0,0-192,0v40.159A26.938,26.938,0,0,0,16,370.9v98.2A26.932,26.932,0,0,0,42.9,496H229.1A26.932,26.932,0,0,0,256,469.1V370.9A26.938,26.938,0,0,0,232,344.159ZM136,224a80.091,80.091,0,0,1,80,80v40H200V304a64,64,0,0,0-128,0v40H56V304A80.091,80.091,0,0,1,136,224Zm48,120H88V304a48,48,0,0,1,96,0Zm56,125.1A10.913,10.913,0,0,1,229.1,480H42.9A10.913,10.913,0,0,1,32,469.1V370.9A10.913,10.913,0,0,1,42.9,360H229.1A10.913,10.913,0,0,1,240,370.9Z"/><path d="M136,392a24,24,0,0,0-8,46.624V456h16V438.624A24,24,0,0,0,136,392Zm0,32a8,8,0,1,1,8-8A8.009,8.009,0,0,1,136,424Z"/></g></svg>