<svg xmlns="http://www.w3.org/2000/svg" viewBox="0 0 64 64"><title>data-center-server-storage-hosting</title><g id="fill_outline" data-name="fill outline"><polygon points="33 52 33 43 31 43 31 52 2 52 2 54 62 54 62 52 33 52" style="fill:#e5e5e5"/><rect x="31" y="43" width="2" height="3" style="fill:#ccc"/><circle cx="32" cy="53" r="3" style="fill:#4398d1"/><rect x="21" y="19" width="22" height="8" style="fill:#e5e5e5"/><rect x="21" y="23" width="22" height="4" style="fill:#dbdbdb"/><rect x="24" y="22" width="12" height="2" style="fill:#ccc"/><rect x="38" y="22" width="2" height="2" style="fill:#88b337"/><rect x="21" y="27" width="22" height="8" style="fill:#e5e5e5"/><rect x="21" y="31" width="22" height="4" style="fill:#dbdbdb"/><rect x="24" y="30" width="12" height="2" style="fill:#ccc"/><rect x="38" y="30" width="2" height="2" style="fill:#88b337"/><rect x="21" y="35" width="22" height="8" style="fill:#e5e5e5"/><rect x="21" y="39" width="22" height="4" style="fill:#dbdbdb"/><rect x="24" y="38" width="12" height="2" style="fill:#ccc"/><rect x="38" y="38" width="2" height="2" style="fill:#88b337"/><rect x="21" y="3" width="22" height="8" style="fill:#e5e5e5"/><rect x="21" y="7" width="22" height="4" style="fill:#dbdbdb"/><rect x="24" y="6" width="12" height="2" style="fill:#ccc"/><rect x="38" y="6" width="2" height="2" style="fill:#88b337"/><rect x="21" y="11" width="22" height="8" style="fill:#e5e5e5"/><rect x="21" y="15" width="22" height="4" style="fill:#dbdbdb"/><rect x="24" y="14" width="12" height="2" style="fill:#ccc"/><rect x="38" y="14" width="2" height="2" style="fill:#88b337"/><rect x="41" y="3" width="2" height="40" style="fill:#dbdbdb"/><rect x="21" y="10" width="22" height="2" style="fill:#ccc"/><rect x="21" y="18" width="22" height="2" style="fill:#ccc"/><rect x="21" y="26" width="22" height="2" style="fill:#ccc"/><rect x="21" y="34" width="22" height="2" style="fill:#ccc"/><rect x="21" y="42" width="22" height="2" style="fill:#ccc"/><path d="M33,49.142V44H43a1,1,0,0,0,1-1V3a1,1,0,0,0-1-1H21a1,1,0,0,0-1,1V43a1,1,0,0,0,1,1H31v5.142A4,4,0,0,0,28.142,52H2v2H28.142a3.981,3.981,0,0,0,7.716,0H62V52H35.858A4,4,0,0,0,33,49.142ZM42,20v6H22V20ZM22,18V12H42v6ZM42,28v6H22V28ZM42,4v6H22V4ZM22,36H42v6H22ZM32,55a2,2,0,1,1,2-2A2,2,0,0,1,32,55Z"/><rect x="24" y="6" width="12" height="2"/><rect x="38" y="6" width="2" height="2"/><rect x="24" y="14" width="12" height="2"/><rect x="38" y="14" width="2" height="2"/><rect x="24" y="22" width="12" height="2"/><rect x="38" y="22" width="2" height="2"/><rect x="24" y="30" width="12" height="2"/><rect x="38" y="30" width="2" height="2"/><rect x="24" y="38" width="12" height="2"/><rect x="38" y="38" width="2" height="2"/></g></svg>