<svg xmlns="http://www.w3.org/2000/svg" viewBox="0 0 64 64"><title>promotion-digital-marketing-advertising</title><g id="filled_outline" data-name="filled outline"><path d="M54,17H10a4,4,0,0,0-4,4V59H58V21A4,4,0,0,0,54,17Z" style="fill:#4398d1"/><path d="M52,21H11a1,1,0,0,0-1,1V57H54V23A2,2,0,0,0,52,21Z" style="fill:#87ced9"/><polygon points="54 28 25 57 54 57 54 28" style="fill:#71c4d1"/><polygon points="46 3 49.106 6.409 53.5 5.01 54.485 9.515 58.99 10.5 57.591 14.894 61 18 57.591 21.106 58.99 25.5 54.485 26.485 53.5 30.99 49.106 29.591 46 33 42.894 29.591 38.5 30.99 37.515 26.485 33.01 25.5 34.409 21.106 31 18 34.409 14.894 33.01 10.5 37.515 9.515 38.5 5.01 42.894 6.409 46 3" style="fill:#fdb62f"/><rect x="38.929" y="17" width="14.142" height="2" transform="translate(0.745 37.799) rotate(-45)" style="fill:#fd6d2f"/><path d="M41,18a3,3,0,1,1,3-3A3,3,0,0,1,41,18Zm0-4a1,1,0,1,0,1,1A1,1,0,0,0,41,14Z" style="fill:#fd6d2f"/><path d="M51,24a3,3,0,1,1,3-3A3,3,0,0,1,51,24Zm0-4a1,1,0,1,0,1,1A1,1,0,0,0,51,20Z" style="fill:#fd6d2f"/><polygon points="20.575 44.799 16.983 46.256 19.327 51 23.261 51 20.575 44.799" style="fill:#e0e3e6"/><polygon points="33 45 20.575 44.799 17.89 39.484 27.736 29.74 33 45" style="fill:#e0e3e6"/><path d="M14.149,44.322h0a2.9,2.9,0,0,0,4.042,1.657l2.384-1.18L17.89,39.484l-2.484,1.475A2.851,2.851,0,0,0,14.149,44.322Z" style="fill:#e3584b"/><rect x="33.391" y="35.625" width="3.501" height="1.999" transform="translate(-10.074 13.563) rotate(-19.161)" style="fill:#5eb3d1"/><rect x="30.793" y="28.15" width="3.186" height="2" transform="translate(-11.07 32.339) rotate(-46.187)" style="fill:#5eb3d1"/><rect x="36" y="43" width="3" height="2" style="fill:#5eb3d1"/><rect x="42" y="37" width="19" height="12" style="fill:#e3584b"/><rect x="45" y="40" width="4" height="2" style="fill:#c9433c"/><rect x="51" y="40" width="7" height="2" style="fill:#c9433c"/><rect x="45" y="44" width="13" height="2" style="fill:#c9433c"/><rect x="3" y="25" width="15" height="8" style="fill:#fd6d2f"/><rect x="6" y="28" width="2" height="2" style="fill:#e3584b"/><rect x="10" y="28" width="5" height="2" style="fill:#e3584b"/><path d="M58,61H6a3,3,0,0,1-3-3V55H25.882A1.808,1.808,0,0,1,27.5,56h0a1.808,1.808,0,0,0,1.618,1h5.764A1.808,1.808,0,0,0,36.5,56h0a1.808,1.808,0,0,1,1.618-1H61v3A3,3,0,0,1,58,61Z" style="fill:#d6d9db"/><polygon points="18 27 18 33 10 33 10 35 20 35 20 27 18 27" style="fill:#71c4d1"/><rect x="6" y="33" width="4" height="2" style="fill:#3e8cc7"/><rect x="54" y="49" width="4" height="2" style="fill:#3e8cc7"/><path d="M61,54H59V52H57v2H55V52H53v2H38.118A2.794,2.794,0,0,0,35.6,55.553a.8.8,0,0,1-.723.447H29.118a.8.8,0,0,1-.723-.447A2.794,2.794,0,0,0,25.882,54H11V36H9V54H7V36H5V54H3a1,1,0,0,0-1,1v3a4,4,0,0,0,4,4H58a4,4,0,0,0,4-4V55A1,1,0,0,0,61,54Zm-1,4a2,2,0,0,1-2,2H6a2,2,0,0,1-2-2V56H25.882a.8.8,0,0,1,.723.447A2.794,2.794,0,0,0,29.118,58h5.764A2.794,2.794,0,0,0,37.4,56.447.8.8,0,0,1,38.118,56H60Z"/><path d="M28,18V16H10a5.006,5.006,0,0,0-5,5v1H7V21a3,3,0,0,1,3-3Z"/><path d="M9,22H30V20H11A2,2,0,0,0,9,22Z"/><path d="M58.738,14.587l1.2-3.783A1,1,0,0,0,59.2,9.523l-3.879-.848L54.477,4.8A1,1,0,0,0,53.2,4.057l-3.783,1.2L46.739,2.326a1.031,1.031,0,0,0-1.478,0L42.587,5.262,38.8,4.057a1,1,0,0,0-1.281.739l-.848,3.879L32.8,9.523a1,1,0,0,0-.739,1.281l1.2,3.783-2.936,2.674a1,1,0,0,0,0,1.478l2.936,2.674-1.2,3.783a1,1,0,0,0,.739,1.281l3.879.848.848,3.879a1,1,0,0,0,1.281.739l3.783-1.205,2.674,2.936a1,1,0,0,0,1.478,0l2.674-2.936L53.2,31.943a1,1,0,0,0,1.281-.739l.848-3.879,3.879-.848a1,1,0,0,0,.739-1.281l-1.2-3.783,2.936-2.674a1,1,0,0,0,0-1.478Zm-1.821,5.779a1,1,0,0,0-.279,1.043L57.7,24.758l-3.433.751a1,1,0,0,0-.762.762L52.758,29.7l-3.349-1.066a1.006,1.006,0,0,0-1.043.279L46,31.515l-2.366-2.6a1,1,0,0,0-.739-.326.989.989,0,0,0-.3.047L39.242,29.7l-.751-3.433a1,1,0,0,0-.762-.762L34.3,24.758l1.066-3.349a1,1,0,0,0-.279-1.043L32.485,18l2.6-2.366a1,1,0,0,0,.279-1.043L34.3,11.242l3.433-.751a1,1,0,0,0,.762-.762L39.242,6.3l3.349,1.066a1,1,0,0,0,1.043-.279L46,4.485l2.366,2.6a1,1,0,0,0,1.043.279L52.758,6.3l.751,3.433a1,1,0,0,0,.762.762l3.433.751-1.066,3.349a1,1,0,0,0,.279,1.043L59.515,18Z"/><rect x="38.929" y="17" width="14.142" height="2" transform="translate(0.745 37.799) rotate(-45)"/><path d="M44,15a3,3,0,1,0-3,3A3,3,0,0,0,44,15Zm-4,0a1,1,0,1,1,1,1A1,1,0,0,1,40,15Z"/><path d="M51,18a3,3,0,1,0,3,3A3,3,0,0,0,51,18Zm0,4a1,1,0,1,1,1-1A1,1,0,0,1,51,22Z"/><path d="M27.964,28.767a.993.993,0,0,0-.931.262l-9.76,9.659L14.9,40.1a3.828,3.828,0,0,0-1.7,4.541h0a3.8,3.8,0,0,0,3.147,2.586l2.083,4.215a1,1,0,0,0,.9.557h3.934a1,1,0,0,0,.918-1.4l-2.07-4.779L32.983,46H33a1,1,0,0,0,.945-1.326l-5.263-15.26A1,1,0,0,0,27.964,28.767ZM15.1,44a1.843,1.843,0,0,1,.821-2.185l1.562-.927,1.749,3.459-1.481.733a1.915,1.915,0,0,1-1.588.052A1.854,1.854,0,0,1,15.1,44Zm4.852,6L18.44,46.946c.063-.028.131-.039.194-.07l1.442-.714L21.738,50ZM21.2,43.809l-2.084-4.126,8.2-8.114,4.279,12.408Z"/><rect x="33.391" y="35.625" width="3.501" height="1.999" transform="translate(-10.074 13.563) rotate(-19.161)"/><rect x="30.793" y="28.15" width="3.186" height="2" transform="translate(-11.07 32.339) rotate(-46.187)"/><rect x="36" y="43" width="3" height="2"/><path d="M61,36H59V29H57v7H55V34H53v2H42a1,1,0,0,0-1,1V49a1,1,0,0,0,1,1H61a1,1,0,0,0,1-1V37A1,1,0,0,0,61,36ZM60,48H43V38H60Z"/><rect x="45" y="40" width="4" height="2"/><rect x="51" y="40" width="7" height="2"/><rect x="45" y="44" width="13" height="2"/><path d="M3,34H18a1,1,0,0,0,1-1V25a1,1,0,0,0-1-1H3a1,1,0,0,0-1,1v8A1,1,0,0,0,3,34Zm1-8H17v6H4Z"/><rect x="6" y="28" width="2" height="2"/><rect x="10" y="28" width="5" height="2"/></g></svg>