<svg xmlns="http://www.w3.org/2000/svg" viewBox="0 0 64 64"><title>online-shopping-cart-computer-buy</title><g id="fill_outline" data-name="fill outline"><rect x="4" y="3" width="56" height="46" rx="3" ry="3" style="fill:#4398d1"/><path d="M4,40.8V46a3,3,0,0,0,3,3H57a3,3,0,0,0,3-3V10.933Z" style="fill:#3e8cc7"/><path d="M4,41v5a3,3,0,0,0,3,3H57a3,3,0,0,0,3-3V41Z" style="fill:#e5e5e5"/><polygon points="39 61 25 61 27 49 37 49 39 61" style="fill:#e5e5e5"/><path d="M42,62H22a1,1,0,0,1,0-2H42a1,1,0,0,1,0,2Z" style="fill:#cfcfcf"/><polygon points="37.5 52 37 49 27 49 26.5 52 37.5 52" style="fill:#cfcfcf"/><path d="M51.707,30.293,49.414,28H51V26H47a1,1,0,0,0-1,1v4h2V29.414l2.293,2.293Z" style="fill:#de4c3c"/><path d="M44.773,12.366A1,1,0,0,0,44,12H20.653l-.674-3.206A1,1,0,0,0,19,8H15v2h3.188l3.833,18.206,1,4.99A1,1,0,0,0,24,34H40V32H24.819l-.6-3H41a1,1,0,0,0,.98-.8l3-15A1,1,0,0,0,44.773,12.366ZM42.18,17H38.736l.2-3H42.78ZM25.6,22H22.759l-.632-3H25.4Zm1.8-3H31v3H27.6Zm-1.671,5,.2,3H23.812l-.632-3Zm2,0H31v3H27.936ZM33,24h3.264l-.2,3H33Zm0-2V19h3.6l-.2,3Zm5.6-3H41.78l-.6,3H38.4Zm-1.671-5-.2,3H33V14ZM31,17H27.269l-.2-3H31Zm-5.936-3,.2,3H21.706l-.632-3ZM38.069,27l.2-3h2.512l-.6,3Z" style="fill:#cfcfcf"/><path d="M40,38a3,3,0,1,1,3-3A3,3,0,0,1,40,38Zm0-4a1,1,0,1,0,1,1A1,1,0,0,0,40,34Z" style="fill:#126099"/><path d="M24,38a3,3,0,1,1,3-3A3,3,0,0,1,24,38Zm0-4a1,1,0,1,0,1,1A1,1,0,0,0,24,34Z" style="fill:#126099"/><circle cx="14" cy="9" r="2" style="fill:#de4c3c"/><path d="M7,50H25.82L24.153,60H22a1,1,0,0,0,0,2H42a1,1,0,0,0,0-2H39.847L38.18,50H57a4,4,0,0,0,4-4V6a4,4,0,0,0-4-4H7A4,4,0,0,0,3,6V46A4,4,0,0,0,7,50ZM37.819,60H26.181l1.666-10h8.306ZM5,6A2,2,0,0,1,7,4H57a2,2,0,0,1,2,2V40H5ZM5,42H59v4a2,2,0,0,1-2,2H7a2,2,0,0,1-2-2Z"/><path d="M41.98,28.2l3-15A1,1,0,0,0,44,12H20.653l-.674-3.206A1,1,0,0,0,19,8H16.816a3,3,0,1,0,0,2h1.372l3.833,18.206.807,4.033A3,3,0,1,0,27,35a2.966,2.966,0,0,0-.184-1H37.184A2.966,2.966,0,0,0,37,35a3,3,0,1,0,3-3H24.819l-.6-3H41A1,1,0,0,0,41.98,28.2ZM14,10a1,1,0,1,1,1-1A1,1,0,0,1,14,10ZM25.6,22H22.759l-.632-3H25.4Zm1.8-3H31v3H27.6Zm-1.671,5,.2,3H23.812l-.632-3Zm2,0H31v3H27.936ZM33,24h3.264l-.2,3H33Zm0-2V19h3.6l-.2,3Zm5.6-3H41.78l-.6,3H38.4Zm3.578-2H38.736l.2-3H42.78Zm-5.249-3-.2,3H33V14ZM31,17H27.269l-.2-3H31Zm-5.936-3,.2,3H21.706l-.632-3ZM25,35a1,1,0,1,1-1-1A1,1,0,0,1,25,35Zm16,0a1,1,0,1,1-1-1A1,1,0,0,1,41,35Zm-2.931-8,.2-3h2.512l-.6,3Z"/><path d="M51,28V26H47a1,1,0,0,0-1,1v4h2V29.414l2.293,2.293,1.414-1.414L49.414,28Z"/></g></svg>