<svg xmlns="http://www.w3.org/2000/svg" viewBox="0 0 64 64"><title>banking-bank-money-finance-saving</title><g id="filled_outline" data-name="filled outline"><rect x="6" y="3" width="52" height="58" style="fill:#71c4d1"/><rect x="26" y="17" width="4" height="5" style="fill:#4398d1"/><rect x="34" y="17" width="4" height="5" style="fill:#4398d1"/><rect x="42" y="17" width="4" height="5" style="fill:#4398d1"/><rect x="18" y="17" width="4" height="5" style="fill:#4398d1"/><rect x="26" y="26" width="4" height="5" style="fill:#4398d1"/><rect x="34" y="26" width="4" height="5" style="fill:#4398d1"/><rect x="42" y="26" width="4" height="5" style="fill:#4398d1"/><rect x="18" y="26" width="4" height="5" style="fill:#4398d1"/><rect x="26" y="35" width="4" height="5" style="fill:#4398d1"/><rect x="34" y="35" width="4" height="5" style="fill:#4398d1"/><rect x="42" y="35" width="4" height="5" style="fill:#4398d1"/><rect x="18" y="35" width="4" height="5" style="fill:#4398d1"/><rect x="26" y="44" width="4" height="5" style="fill:#4398d1"/><rect x="34" y="44" width="4" height="5" style="fill:#4398d1"/><rect x="42" y="44" width="4" height="5" style="fill:#4398d1"/><rect x="18" y="44" width="4" height="5" style="fill:#4398d1"/><rect x="50" y="17" width="4" height="5" style="fill:#4398d1"/><rect x="50" y="26" width="4" height="5" style="fill:#4398d1"/><rect x="50" y="35" width="4" height="5" style="fill:#4398d1"/><rect x="50" y="44" width="4" height="5" style="fill:#4398d1"/><rect x="10" y="17" width="4" height="5" style="fill:#4398d1"/><rect x="26" y="8" width="4" height="5" style="fill:#4398d1"/><rect x="34" y="8" width="4" height="5" style="fill:#4398d1"/><rect x="42" y="8" width="4" height="5" style="fill:#4398d1"/><rect x="18" y="8" width="4" height="5" style="fill:#4398d1"/><rect x="50" y="8" width="4" height="5" style="fill:#4398d1"/><rect x="10" y="8" width="4" height="5" style="fill:#4398d1"/><rect x="10" y="26" width="4" height="5" style="fill:#4398d1"/><rect x="10" y="35" width="4" height="5" style="fill:#4398d1"/><rect x="10" y="44" width="4" height="5" style="fill:#4398d1"/><rect x="4" y="2" width="56" height="2" style="fill:#71c4d1"/><rect x="6" y="4" width="52" height="2" style="fill:#62becc"/><rect x="10" y="53" width="12" height="8" style="fill:#4398d1"/><rect x="42" y="53" width="12" height="8" style="fill:#4398d1"/><rect x="26" y="53" width="12" height="8" style="fill:#4398d1"/><rect x="31" y="53" width="2" height="8" style="fill:#388bc2"/><rect x="15" y="53" width="2" height="8" style="fill:#388bc2"/><rect x="47" y="53" width="2" height="8" style="fill:#388bc2"/><rect x="3" y="60" width="58" height="2" style="fill:#71c4d1"/><rect x="10" y="8" width="4" height="2" style="fill:#388bc2"/><rect x="18" y="8" width="4" height="2" style="fill:#388bc2"/><rect x="26" y="8" width="4" height="2" style="fill:#388bc2"/><rect x="34" y="8" width="4" height="2" style="fill:#388bc2"/><rect x="42" y="8" width="4" height="2" style="fill:#388bc2"/><rect x="50" y="8" width="4" height="2" style="fill:#388bc2"/><rect x="10" y="17" width="4" height="2" style="fill:#388bc2"/><rect x="18" y="17" width="4" height="2" style="fill:#388bc2"/><rect x="26" y="17" width="4" height="2" style="fill:#388bc2"/><rect x="34" y="17" width="4" height="2" style="fill:#388bc2"/><rect x="42" y="17" width="4" height="2" style="fill:#388bc2"/><rect x="50" y="17" width="4" height="2" style="fill:#388bc2"/><rect x="10" y="26" width="4" height="2" style="fill:#388bc2"/><rect x="18" y="26" width="4" height="2" style="fill:#388bc2"/><rect x="26" y="26" width="4" height="2" style="fill:#388bc2"/><rect x="34" y="26" width="4" height="2" style="fill:#388bc2"/><rect x="42" y="26" width="4" height="2" style="fill:#388bc2"/><rect x="50" y="26" width="4" height="2" style="fill:#388bc2"/><rect x="10" y="35" width="4" height="2" style="fill:#388bc2"/><rect x="18" y="35" width="4" height="2" style="fill:#388bc2"/><rect x="26" y="35" width="4" height="2" style="fill:#388bc2"/><rect x="34" y="35" width="4" height="2" style="fill:#388bc2"/><rect x="42" y="35" width="4" height="2" style="fill:#388bc2"/><rect x="50" y="35" width="4" height="2" style="fill:#388bc2"/><rect x="10" y="44" width="4" height="2" style="fill:#388bc2"/><rect x="18" y="44" width="4" height="2" style="fill:#388bc2"/><rect x="26" y="44" width="4" height="2" style="fill:#388bc2"/><rect x="34" y="44" width="4" height="2" style="fill:#388bc2"/><rect x="42" y="44" width="4" height="2" style="fill:#388bc2"/><rect x="50" y="44" width="4" height="2" style="fill:#388bc2"/><rect x="10" y="53" width="12" height="2" style="fill:#388bc2"/><rect x="26" y="53" width="12" height="2" style="fill:#388bc2"/><rect x="42" y="53" width="12" height="2" style="fill:#388bc2"/><path d="M59,4h2V2H3V4H5V60H2v2H62V60H59ZM15,60H11V54h4Zm6,0H17V54h4Zm10,0H27V54h4Zm6,0H33V54h4Zm10,0H43V54h4Zm6,0H49V54h4Zm4,0H55V53a1,1,0,0,0-1-1H42a1,1,0,0,0-1,1v7H39V53a1,1,0,0,0-1-1H26a1,1,0,0,0-1,1v7H23V53a1,1,0,0,0-1-1H10a1,1,0,0,0-1,1v7H7V4H57Z"/><path d="M26,23h4a1,1,0,0,0,1-1V17a1,1,0,0,0-1-1H26a1,1,0,0,0-1,1v5A1,1,0,0,0,26,23Zm1-5h2v3H27Z"/><path d="M34,23h4a1,1,0,0,0,1-1V17a1,1,0,0,0-1-1H34a1,1,0,0,0-1,1v5A1,1,0,0,0,34,23Zm1-5h2v3H35Z"/><path d="M42,23h4a1,1,0,0,0,1-1V17a1,1,0,0,0-1-1H42a1,1,0,0,0-1,1v5A1,1,0,0,0,42,23Zm1-5h2v3H43Z"/><path d="M18,23h4a1,1,0,0,0,1-1V17a1,1,0,0,0-1-1H18a1,1,0,0,0-1,1v5A1,1,0,0,0,18,23Zm1-5h2v3H19Z"/><path d="M26,32h4a1,1,0,0,0,1-1V26a1,1,0,0,0-1-1H26a1,1,0,0,0-1,1v5A1,1,0,0,0,26,32Zm1-5h2v3H27Z"/><path d="M34,32h4a1,1,0,0,0,1-1V26a1,1,0,0,0-1-1H34a1,1,0,0,0-1,1v5A1,1,0,0,0,34,32Zm1-5h2v3H35Z"/><path d="M42,32h4a1,1,0,0,0,1-1V26a1,1,0,0,0-1-1H42a1,1,0,0,0-1,1v5A1,1,0,0,0,42,32Zm1-5h2v3H43Z"/><path d="M18,32h4a1,1,0,0,0,1-1V26a1,1,0,0,0-1-1H18a1,1,0,0,0-1,1v5A1,1,0,0,0,18,32Zm1-5h2v3H19Z"/><path d="M26,41h4a1,1,0,0,0,1-1V35a1,1,0,0,0-1-1H26a1,1,0,0,0-1,1v5A1,1,0,0,0,26,41Zm1-5h2v3H27Z"/><path d="M34,41h4a1,1,0,0,0,1-1V35a1,1,0,0,0-1-1H34a1,1,0,0,0-1,1v5A1,1,0,0,0,34,41Zm1-5h2v3H35Z"/><path d="M42,41h4a1,1,0,0,0,1-1V35a1,1,0,0,0-1-1H42a1,1,0,0,0-1,1v5A1,1,0,0,0,42,41Zm1-5h2v3H43Z"/><path d="M18,41h4a1,1,0,0,0,1-1V35a1,1,0,0,0-1-1H18a1,1,0,0,0-1,1v5A1,1,0,0,0,18,41Zm1-5h2v3H19Z"/><path d="M26,50h4a1,1,0,0,0,1-1V44a1,1,0,0,0-1-1H26a1,1,0,0,0-1,1v5A1,1,0,0,0,26,50Zm1-5h2v3H27Z"/><path d="M34,50h4a1,1,0,0,0,1-1V44a1,1,0,0,0-1-1H34a1,1,0,0,0-1,1v5A1,1,0,0,0,34,50Zm1-5h2v3H35Z"/><path d="M42,50h4a1,1,0,0,0,1-1V44a1,1,0,0,0-1-1H42a1,1,0,0,0-1,1v5A1,1,0,0,0,42,50Zm1-5h2v3H43Z"/><path d="M18,50h4a1,1,0,0,0,1-1V44a1,1,0,0,0-1-1H18a1,1,0,0,0-1,1v5A1,1,0,0,0,18,50Zm1-5h2v3H19Z"/><path d="M50,23h4a1,1,0,0,0,1-1V17a1,1,0,0,0-1-1H50a1,1,0,0,0-1,1v5A1,1,0,0,0,50,23Zm1-5h2v3H51Z"/><path d="M50,32h4a1,1,0,0,0,1-1V26a1,1,0,0,0-1-1H50a1,1,0,0,0-1,1v5A1,1,0,0,0,50,32Zm1-5h2v3H51Z"/><path d="M50,41h4a1,1,0,0,0,1-1V35a1,1,0,0,0-1-1H50a1,1,0,0,0-1,1v5A1,1,0,0,0,50,41Zm1-5h2v3H51Z"/><path d="M50,50h4a1,1,0,0,0,1-1V44a1,1,0,0,0-1-1H50a1,1,0,0,0-1,1v5A1,1,0,0,0,50,50Zm1-5h2v3H51Z"/><path d="M10,23h4a1,1,0,0,0,1-1V17a1,1,0,0,0-1-1H10a1,1,0,0,0-1,1v5A1,1,0,0,0,10,23Zm1-5h2v3H11Z"/><path d="M26,14h4a1,1,0,0,0,1-1V8a1,1,0,0,0-1-1H26a1,1,0,0,0-1,1v5A1,1,0,0,0,26,14Zm1-5h2v3H27Z"/><path d="M34,14h4a1,1,0,0,0,1-1V8a1,1,0,0,0-1-1H34a1,1,0,0,0-1,1v5A1,1,0,0,0,34,14Zm1-5h2v3H35Z"/><path d="M42,14h4a1,1,0,0,0,1-1V8a1,1,0,0,0-1-1H42a1,1,0,0,0-1,1v5A1,1,0,0,0,42,14Zm1-5h2v3H43Z"/><path d="M18,14h4a1,1,0,0,0,1-1V8a1,1,0,0,0-1-1H18a1,1,0,0,0-1,1v5A1,1,0,0,0,18,14Zm1-5h2v3H19Z"/><path d="M50,14h4a1,1,0,0,0,1-1V8a1,1,0,0,0-1-1H50a1,1,0,0,0-1,1v5A1,1,0,0,0,50,14Zm1-5h2v3H51Z"/><path d="M10,14h4a1,1,0,0,0,1-1V8a1,1,0,0,0-1-1H10A1,1,0,0,0,9,8v5A1,1,0,0,0,10,14Zm1-5h2v3H11Z"/><path d="M10,32h4a1,1,0,0,0,1-1V26a1,1,0,0,0-1-1H10a1,1,0,0,0-1,1v5A1,1,0,0,0,10,32Zm1-5h2v3H11Z"/><path d="M10,41h4a1,1,0,0,0,1-1V35a1,1,0,0,0-1-1H10a1,1,0,0,0-1,1v5A1,1,0,0,0,10,41Zm1-5h2v3H11Z"/><path d="M10,50h4a1,1,0,0,0,1-1V44a1,1,0,0,0-1-1H10a1,1,0,0,0-1,1v5A1,1,0,0,0,10,50Zm1-5h2v3H11Z"/></g></svg>