<svg xmlns="http://www.w3.org/2000/svg" viewBox="0 0 64 64"><title>worldwide-shipping-logistic-transport</title><g id="fill_outline" data-name="fill outline"><circle cx="32" cy="32" r="22" style="fill:#4398d1"/><path d="M41.731,12.269A22,22,0,0,1,12.269,41.731,22,22,0,1,0,41.731,12.269Z" style="fill:#3e8cc7"/><path d="M35,21l8.031-8.031A21.879,21.879,0,0,0,32,10v8Z" style="fill:#88b337"/><path d="M19,32l5,4V30h8V25l-5-5v3H23V11.926A22.046,22.046,0,0,0,10.835,26H19Z" style="fill:#88b337"/><polygon points="27 43 27 48 32 50 32 36 24 36 24 41 27 43" style="fill:#88b337"/><polygon points="49 31 49 21 43 21 38 26 42 30 42 40 46 40 53 31 49 31" style="fill:#88b337"/><path d="M32,62A30.014,30.014,0,0,1,4.681,19.586l1.82.828A28.015,28.015,0,0,0,32,60a28.3,28.3,0,0,0,4.829-.415l.342,1.971A30.244,30.244,0,0,1,32,62Z" style="fill:#c4c4c4"/><path d="M39.836,60.966l-.521-1.931a27.924,27.924,0,0,0,3.305-1.119l.76,1.85A29.78,29.78,0,0,1,39.836,60.966Z" style="fill:#c4c4c4"/><path d="M59.319,44.414l-1.82-.828A28.015,28.015,0,0,0,32,4a28.22,28.22,0,0,0-5.794.6l-.412-1.957A30.025,30.025,0,0,1,62,32,29.765,29.765,0,0,1,59.319,44.414Z" style="fill:#c4c4c4"/><path d="M21.379,6.084l-.758-1.85a29.913,29.913,0,0,1,3.1-1.078l.55,1.923A27.787,27.787,0,0,0,21.379,6.084Z" style="fill:#c4c4c4"/><path d="M8,18,19,8h0a4.5,4.5,0,0,0-6.171-.181L7,13H3Z" style="fill:#cfcfcf"/><path d="M56,46,45,56h0a4.5,4.5,0,0,0,6.171.181L57,51h4Z" style="fill:#cfcfcf"/><path d="M32,9A23,23,0,1,0,55,32,23.026,23.026,0,0,0,32,9Zm1,2.051a20.824,20.824,0,0,1,8.358,2.177L35,19.586l-2-2ZM22,13.537V23a1,1,0,0,0,1,1h4a1,1,0,0,0,1-1v-.586l3,3V29H24a1,1,0,0,0-1,1v3.919l-3-2.4V26a1,1,0,0,0-1-1H12.225A21.105,21.105,0,0,1,22,13.537Zm5.555,28.631L25,40.465V37h6V48.523l-3-1.2V43A1,1,0,0,0,27.555,42.168ZM32,53A20.917,20.917,0,0,1,11.627,27H18v5a1,1,0,0,0,.375.781L23,36.48V41a1,1,0,0,0,.445.832L26,43.535V48a1,1,0,0,0,.628.929l5,2A1,1,0,0,0,33,50V36a1,1,0,0,0-1-1H25V31h7a1,1,0,0,0,1-1V25a1,1,0,0,0-.293-.707l-5-5A1,1,0,0,0,26,20v2H24V12.592a20.872,20.872,0,0,1,7-1.541V18a1,1,0,0,0,.293.707l3,3a1,1,0,0,0,1.414,0l7.46-7.46a21.135,21.135,0,0,1,6.079,5.8A.96.96,0,0,0,49,20H43a1,1,0,0,0-.707.293l-5,5a1,1,0,0,0,0,1.414L41,30.414V40a1,1,0,0,0,1,1h4a1,1,0,0,0,.79-.386l6.176-7.941A21.009,21.009,0,0,1,32,53ZM42.707,29.293,39.414,26l4-4H48v9a1,1,0,0,0,1,1h1.956l-5.445,7H43V30A1,1,0,0,0,42.707,29.293ZM50,30V21.239A20.83,20.83,0,0,1,52.9,30Z"/><path d="M32,62a30.244,30.244,0,0,0,5.171-.444l-.342-1.971A28.024,28.024,0,0,1,4,32,27.8,27.8,0,0,1,6.5,20.414l-1.82-.828A30.014,30.014,0,0,0,32,62Z"/><path d="M39.836,60.966a29.78,29.78,0,0,0,3.544-1.2l-.76-1.85a27.924,27.924,0,0,1-3.3,1.119Z"/><path d="M32,2a30.194,30.194,0,0,0-6.206.643L26.206,4.6A28.026,28.026,0,0,1,60,32a27.8,27.8,0,0,1-2.5,11.586l1.82.828A30.014,30.014,0,0,0,32,2Z"/><path d="M24.275,5.079l-.55-1.923a29.913,29.913,0,0,0-3.1,1.078l.758,1.85A27.787,27.787,0,0,1,24.275,5.079Z"/><path d="M7.293,18.707a1,1,0,0,0,1.38.033l11-10a1,1,0,0,0,.034-1.447,5.5,5.5,0,0,0-7.542-.222L6.62,12H3a1,1,0,0,0-.707,1.707ZM7,14a1.006,1.006,0,0,0,.665-.252l5.829-5.182a3.5,3.5,0,0,1,3.937-.491l-9.4,8.544L5.414,14Z"/><path d="M44,55.976a1,1,0,0,0,.293.731,5.5,5.5,0,0,0,7.542.222L57.38,52H61a1,1,0,0,0,.707-1.707l-5-5a1,1,0,0,0-1.38-.033l-11,10A1,1,0,0,0,44,55.976Zm11.967-8.595L58.586,50H57a1.006,1.006,0,0,0-.665.252l-5.829,5.182a3.509,3.509,0,0,1-3.937.491Z"/></g></svg>