<svg xmlns="http://www.w3.org/2000/svg" viewBox="0 0 64 64"><title>certificate-diploma-education-degree</title><g id="fill_outline" data-name="fill outline"><polyline points="29 53 3 53 3 12 61 12 61 53 35 53" style="fill:#4398d1"/><polygon points="8.962 53 29 53 35 53 61 53 61 12 55.744 12 8.962 53" style="fill:#3e8cc7"/><path d="M53,50H11a1,1,0,0,1-1-1,3,3,0,0,0-3-3,1,1,0,0,1-1-1V20a1,1,0,0,1,1-1,3,3,0,0,0,3-3,1,1,0,0,1,1-1H53a1,1,0,0,1,1,1,3,3,0,0,0,3,3,1,1,0,0,1,1,1V45a1,1,0,0,1-1,1,3,3,0,0,0-3,3A1,1,0,0,1,53,50ZM11.9,48H52.1A5.013,5.013,0,0,1,56,44.1V20.9A5.013,5.013,0,0,1,52.1,17H11.9A5.013,5.013,0,0,1,8,20.9V44.1A5.013,5.013,0,0,1,11.9,48Z" style="fill:#126099"/><polygon points="29 49 29 56 32 54 35 56 35 49 29 49" style="fill:#de4c3c"/><rect x="25" y="20" width="14" height="2" style="fill:#c7c7c7"/><rect x="13" y="25" width="39" height="2" style="fill:#c7c7c7"/><rect x="21" y="30" width="22" height="2" style="fill:#c7c7c7"/><rect x="17" y="35" width="29" height="2" style="fill:#c7c7c7"/><rect x="14" y="42" width="9" height="2" style="fill:#c7c7c7"/><rect x="41" y="42" width="9" height="2" style="fill:#c7c7c7"/><circle cx="32" cy="45" r="5" style="fill:#fdb62f"/><path d="M61,11H3a1,1,0,0,0-1,1V53a1,1,0,0,0,1,1H28v2a1,1,0,0,0,1.555.832L32,55.2l2.445,1.63A1,1,0,0,0,36,56V54H61a1,1,0,0,0,1-1V12A1,1,0,0,0,61,11ZM28,45a4,4,0,1,1,4,4A4,4,0,0,1,28,45Zm4-6a5.989,5.989,0,0,0-5.188,9H11.9A5.013,5.013,0,0,0,8,44.1V20.9A5.013,5.013,0,0,0,11.9,17H52.1A5.013,5.013,0,0,0,56,20.9V44.1A5.013,5.013,0,0,0,52.1,48H37.188A5.989,5.989,0,0,0,32,39Zm.555,14.168a1,1,0,0,0-1.11,0L30,54.131V50.65a5.889,5.889,0,0,0,4,0v3.481ZM60,52H36V50H53a1,1,0,0,0,1-1,3,3,0,0,1,3-3,1,1,0,0,0,1-1V20a1,1,0,0,0-1-1,3,3,0,0,1-3-3,1,1,0,0,0-1-1H11a1,1,0,0,0-1,1,3,3,0,0,1-3,3,1,1,0,0,0-1,1V45a1,1,0,0,0,1,1,3,3,0,0,1,3,3,1,1,0,0,0,1,1H28v2H4V13H60Z"/><rect x="25" y="20" width="14" height="2"/><rect x="13" y="25" width="39" height="2"/><rect x="21" y="30" width="22" height="2"/><rect x="17" y="35" width="29" height="2"/><rect x="14" y="42" width="9" height="2"/><rect x="41" y="42" width="9" height="2"/><path d="M61,11H3a1,1,0,0,0-1,1V53a1,1,0,0,0,1,1H28v2a1,1,0,0,0,1.555.832L32,55.2l2.445,1.63A1,1,0,0,0,36,56V54H61a1,1,0,0,0,1-1V12A1,1,0,0,0,61,11ZM28,45a4,4,0,1,1,4,4A4,4,0,0,1,28,45Zm4-6a5.989,5.989,0,0,0-5.188,9H11.9A5.013,5.013,0,0,0,8,44.1V20.9A5.013,5.013,0,0,0,11.9,17H52.1A5.013,5.013,0,0,0,56,20.9V44.1A5.013,5.013,0,0,0,52.1,48H37.188A5.989,5.989,0,0,0,32,39Zm.555,14.168a1,1,0,0,0-1.11,0L30,54.131V50.65a5.889,5.889,0,0,0,4,0v3.481ZM60,52H36V50H53a1,1,0,0,0,1-1,3,3,0,0,1,3-3,1,1,0,0,0,1-1V20a1,1,0,0,0-1-1,3,3,0,0,1-3-3,1,1,0,0,0-1-1H11a1,1,0,0,0-1,1,3,3,0,0,1-3,3,1,1,0,0,0-1,1V45a1,1,0,0,0,1,1,3,3,0,0,1,3,3,1,1,0,0,0,1,1H28v2H4V13H60Z"/><rect x="25" y="20" width="14" height="2"/><rect x="13" y="25" width="39" height="2"/><rect x="21" y="30" width="22" height="2"/><rect x="17" y="35" width="29" height="2"/><rect x="14" y="42" width="9" height="2"/><rect x="41" y="42" width="9" height="2"/></g></svg>